name rise44.9368peak50.754fall52.0217.mot
datacolumns 19
datarows 15
range 17.17160200000000 17.19494300000000
endheader
time	ground_force1_vx	ground_force1_vy	ground_force1_vz	ground_force1_px	ground_force1_py	ground_force1_pz	ground_force2_vx	ground_force2_vy	ground_force2_vz	ground_force2_px	ground_force2_py	ground_force2_pz	ground_torque1_x	ground_torque1_y	ground_torque1_z	ground_torque2_x	ground_torque2_y	ground_torque2_z	
17.17160200000000	57.23398000000000	742.35419700000000	65.97510300000000	0.31524400000000	0.00000000000000	0.16279000000000	0.00000000000000	0.00000000000000	0.00000000000000	0.00000000000000	0.00000000000000	0.00000000000000	0.00000000000000	22.77103600000000	0.00000000000000	0.00000000000000	0.00000000000000	0.00000000000000	
17.17328100000000	56.49761900000000	744.59730900000000	66.08594200000000	0.31416000000000	0.00000000000000	0.16283700000000	0.00000000000000	0.00000000000000	0.00000000000000	0.00000000000000	0.00000000000000	0.00000000000000	0.00000000000000	22.93278500000000	0.00000000000000	0.00000000000000	0.00000000000000	0.00000000000000	
17.17493500000000	55.76638200000000	746.75639500000000	66.18851900000000	0.31311800000000	0.00000000000000	0.16288300000000	0.00000000000000	0.00000000000000	0.00000000000000	0.00000000000000	0.00000000000000	0.00000000000000	0.00000000000000	23.09110700000000	0.00000000000000	0.00000000000000	0.00000000000000	0.00000000000000	
17.17660800000000	55.04106900000000	748.82910400000003	66.28303600000000	0.31211800000000	0.00000000000000	0.16292900000000	0.00000000000000	0.00000000000000	0.00000000000000	0.00000000000000	0.00000000000000	0.00000000000000	0.00000000000000	23.24593300000000	0.00000000000000	0.00000000000000	0.00000000000000	0.00000000000000	
17.17827400000000	54.32239000000000	750.81312600000001	66.36964200000000	0.31115900000000	0.00000000000000	0.16297300000000	0.00000000000000	0.00000000000000	0.00000000000000	0.00000000000000	0.00000000000000	0.00000000000000	0.00000000000000	23.39716700000000	0.00000000000000	0.00000000000000	0.00000000000000	0.00000000000000	
17.17993800000000	53.61096600000000	752.70621900000003	66.44844700000000	0.31024000000000	0.00000000000000	0.16301700000000	0.00000000000000	0.00000000000000	0.00000000000000	0.00000000000000	0.00000000000000	0.00000000000000	0.00000000000000	23.54469400000000	0.00000000000000	0.00000000000000	0.00000000000000	0.00000000000000	
17.18160800000000	52.90733000000000	754.50621999999998	66.51951500000000	0.30935800000000	0.00000000000000	0.16306100000000	0.00000000000000	0.00000000000000	0.00000000000000	0.00000000000000	0.00000000000000	0.00000000000000	0.00000000000000	23.68837700000000	0.00000000000000	0.00000000000000	0.00000000000000	0.00000000000000	
17.18328100000000	52.21193100000000	756.21106899999995	66.58286900000000	0.30851300000000	0.00000000000000	0.16310400000000	0.00000000000000	0.00000000000000	0.00000000000000	0.00000000000000	0.00000000000000	0.00000000000000	0.00000000000000	23.82806300000000	0.00000000000000	0.00000000000000	0.00000000000000	0.00000000000000	
17.18494900000000	51.52513300000000	757.81882199999995	66.63849800000000	0.30770300000000	0.00000000000000	0.16314600000000	0.00000000000000	0.00000000000000	0.00000000000000	0.00000000000000	0.00000000000000	0.00000000000000	0.00000000000000	23.96358200000000	0.00000000000000	0.00000000000000	0.00000000000000	0.00000000000000	
17.18660400000000	50.84722300000000	759.32766900000001	66.68635500000001	0.30692600000000	0.00000000000000	0.16318800000000	0.00000000000000	0.00000000000000	0.00000000000000	0.00000000000000	0.00000000000000	0.00000000000000	0.00000000000000	24.09475100000000	0.00000000000000	0.00000000000000	0.00000000000000	0.00000000000000	
17.18828000000000	50.17841000000000	760.73594900000001	66.72636400000000	0.30617900000000	0.00000000000000	0.16322900000000	0.00000000000000	0.00000000000000	0.00000000000000	0.00000000000000	0.00000000000000	0.00000000000000	0.00000000000000	24.22137500000000	0.00000000000000	0.00000000000000	0.00000000000000	0.00000000000000	
17.18994100000000	49.51883100000000	762.04216199999996	66.75842400000001	0.30546100000000	0.00000000000000	0.16327000000000	0.00000000000000	0.00000000000000	0.00000000000000	0.00000000000000	0.00000000000000	0.00000000000000	0.00000000000000	24.34325000000000	0.00000000000000	0.00000000000000	0.00000000000000	0.00000000000000	
17.19160300000000	48.86855300000000	763.24498500000004	66.78240900000000	0.30477000000000	0.00000000000000	0.16331000000000	0.00000000000000	0.00000000000000	0.00000000000000	0.00000000000000	0.00000000000000	0.00000000000000	0.00000000000000	24.46016400000000	0.00000000000000	0.00000000000000	0.00000000000000	0.00000000000000	
17.19327300000000	48.22757800000000	764.34328300000004	66.79817600000000	0.30410200000000	0.00000000000000	0.16335000000000	0.00000000000000	0.00000000000000	0.00000000000000	0.00000000000000	0.00000000000000	0.00000000000000	0.00000000000000	24.57190300000000	0.00000000000000	0.00000000000000	0.00000000000000	0.00000000000000	
17.19494300000000	47.59585000000000	765.33612000000005	66.80556500000000	0.30345600000000	0.00000000000000	0.16339000000000	0.00000000000000	0.00000000000000	0.00000000000000	0.00000000000000	0.00000000000000	0.00000000000000	0.00000000000000	24.67824800000000	0.00000000000000	0.00000000000000	0.00000000000000	0.00000000000000	
